<svg id="visual" viewBox="0 0 1980 1080" width="1980" height="1080" xmlns="http://www.w3.org/2000/svg" xmlns:xlink="http://www.w3.org/1999/xlink" version="1.1"><path d="M0 571L55 576.7C110 582.3 220 593.7 330 533.5C440 473.3 550 341.7 660 339.7C770 337.7 880 465.3 990 529.3C1100 593.3 1210 593.7 1320 578.5C1430 563.3 1540 532.7 1650 522.8C1760 513 1870 524 1925 529.5L1980 535L1980 1081L1925 1081C1870 1081 1760 1081 1650 1081C1540 1081 1430 1081 1320 1081C1210 1081 1100 1081 990 1081C880 1081 770 1081 660 1081C550 1081 440 1081 330 1081C220 1081 110 1081 55 1081L0 1081Z" fill="#9e3ffd"></path><path d="M0 432L55 527.3C110 622.7 220 813.3 330 905.2C440 997 550 990 660 953C770 916 880 849 990 772C1100 695 1210 608 1320 636.5C1430 665 1540 809 1650 871.5C1760 934 1870 915 1925 905.5L1980 896L1980 1081L1925 1081C1870 1081 1760 1081 1650 1081C1540 1081 1430 1081 1320 1081C1210 1081 1100 1081 990 1081C880 1081 770 1081 660 1081C550 1081 440 1081 330 1081C220 1081 110 1081 55 1081L0 1081Z" fill="#cb97ff"></path></svg>