<svg id="visual" viewBox="0 0 1980 1080" width="1980" height="1080" xmlns="http://www.w3.org/2000/svg" xmlns:xlink="http://www.w3.org/1999/xlink" version="1.1"><path d="M0 676L55 651.2C110 626.3 220 576.7 330 546.8C440 517 550 507 660 574C770 641 880 785 990 854.5C1100 924 1210 919 1320 827.8C1430 736.7 1540 559.3 1650 435.8C1760 312.3 1870 242.7 1925 207.8L1980 173L1980 1081L1925 1081C1870 1081 1760 1081 1650 1081C1540 1081 1430 1081 1320 1081C1210 1081 1100 1081 990 1081C880 1081 770 1081 660 1081C550 1081 440 1081 330 1081C220 1081 110 1081 55 1081L0 1081Z" fill="#9e3ffd"></path><path d="M0 886L55 839.7C110 793.3 220 700.7 330 719.2C440 737.7 550 867.3 660 888.8C770 910.3 880 823.7 990 732.3C1100 641 1210 545 1320 549.8C1430 554.7 1540 660.3 1650 658.3C1760 656.3 1870 546.7 1925 491.8L1980 437L1980 1081L1925 1081C1870 1081 1760 1081 1650 1081C1540 1081 1430 1081 1320 1081C1210 1081 1100 1081 990 1081C880 1081 770 1081 660 1081C550 1081 440 1081 330 1081C220 1081 110 1081 55 1081L0 1081Z" fill="#cb97ff"></path></svg>